# xmcd
#
# Track frame offsets:
#	150
#	20624
#	36809
#	50416
#	67641
#	87286
#	104799
#	119902
#	135846
#	157305
#	173942
#	189688
#	206212
#	227791
#
# Disc length: 3282 seconds
#
# Revision: 1
# Processed by: cddbd v1.5.2PL0 Copyright (c) Steve Scherf et al.
# Submitted via: audiograbber 1.83.01
#
DISCID=cc0cd00e
DTITLE=Bellamy Brothers - Over The Moon
DYEAR=2019
DGENRE=Country
TTITLE0=If You Ever Leave
TTITLE1=Over The Moon
TTITLE2=Dream The Dream
TTITLE3=Wings To Soar (For Those That I Have Wronged)
TTITLE4=Redneck Rockstar
TTITLE5=Mr. Wrong
TTITLE6=Just When I Got My Mind Together (My Body Fell Apart)
TTITLE7=Every Beauty Needs A Beast
TTITLE8=All Kinds Of Wonderful
TTITLE9=Old Dixie Highway
TTITLE10=Rock 'N' Roll Soul
TTITLE11=Monkey In The Kitchen
TTITLE12=Heart Of My Heart
TTITLE13=Gamblers Heart
EXTD=
EXTT0=
EXTT1=
EXTT2=
EXTT3=
EXTT4=
EXTT5=
EXTT6=
EXTT7=
EXTT8=
EXTT9=
EXTT10=
EXTT11=
EXTT12=
EXTT13=
PLAYORDER=
